<svg width="25" height="25" viewBox="0 0 25 25" fill="none" xmlns="http://www.w3.org/2000/svg">
<g clip-path="url(#clip0_52_88)">
<path d="M12.5 0C5.602 0 0 5.602 0 12.5C0 19.398 5.602 25 12.5 25C19.398 25 25 19.398 25 12.5C25 5.602 19.398 0 12.5 0ZM12.5 0.969C14.0147 0.967421 15.5149 1.2646 16.9146 1.84353C18.3143 2.42246 19.5861 3.27176 20.6572 4.34283C21.7282 5.4139 22.5775 6.68569 23.1565 8.08541C23.7354 9.48513 24.0326 10.9853 24.031 12.5C24.031 18.878 18.878 24.063 12.5 24.063C6.122 24.063 0.969 18.878 0.969 12.5C0.967421 10.9853 1.2646 9.48513 1.84353 8.08541C2.42246 6.68569 3.27176 5.4139 4.34283 4.34283C5.4139 3.27176 6.68569 2.42246 8.08541 1.84353C9.48513 1.2646 10.9853 0.967421 12.5 0.969V0.969ZM8 5V13H9.031V6.031H15.469V10H18.969V19.969H9.03V16H8V21H20V8.781L16.031 5H8ZM16.469 6.813L18.75 9H16.469V6.812V6.813ZM11.844 11.5L11.156 12.219L12.937 14H4V15H13L11.156 16.844L11.844 17.562L14.844 14.562L14.813 14.532L14.843 14.5L11.843 11.5H11.844Z" fill="white"/>
</g>
<defs>
<clipPath id="clip0_52_88">
<rect width="25" height="25" fill="white"/>
</clipPath>
</defs>
</svg>
